<svg version="1.1" xmlns="http://www.w3.org/2000/svg" xmlns:xlink="http://www.w3.org/1999/xlink">

	<symbol id="shape-01" viewBox="0 0 185 162">
		<path d="M0,0v94.44c0,10.92,7.45,24.33,16.92,29.81l57.85,33.63c9.48,5.48,25.03,5.48,34.51,0l58.27-33.63c9.47-5.48,17.45-18.89,17.45-29.81V0H0z"/>
	</symbol>

	<symbol id="arrow-01" viewBox="0 0 14 22">
		<path d="M3.09,22L14,11L3.09,0L0,3.08L7.86,11L0,18.92L3.09,22z"/>
	</symbol>

	<symbol id="magnifier" viewBox="0 0 20 20">
		<path d="M13.36,2.29c-3.05-3.05-8.02-3.05-11.07,0c-3.05,3.05-3.05,8.02,0,11.07c2.72,2.72,6.95,3.01,10,0.88c0.07,0.3,0.21,0.59,0.45,0.83l4.44,4.44c0.65,0.65,1.7,0.65,2.34,0c0.65-0.65,0.65-1.69,0-2.34l-4.44-4.44c-0.24-0.24-0.53-0.38-0.83-0.45C16.36,9.24,16.07,5,13.36,2.29L13.36,2.29zM11.95,11.96c-2.28,2.28-5.98,2.28-8.26,0c-2.28-2.28-2.28-5.98,0-8.27c2.28-2.28,5.98-2.28,8.26,0C14.23,5.97,14.23,9.67,11.95,11.96L11.95,11.96zM11.95,11.96"/>
	</symbol>

	<symbol id="person" viewBox="0 0 50 66">
		<path d="M49.96,56.27c-0.24-15.53-2.26-19.95-17.72-22.75c0,0-2.18,2.78-7.25,2.78c-5.07,0-7.25-2.78-7.25-2.78C2.46,36.29,0.32,40.65,0.04,55.76C0.02,57,0.01,57.06,0,56.92c0,0.27,0,0.77,0,1.63C0,58.55,3.68,66,25,66c21.31,0,24.99-7.45,24.99-7.45c0-0.56,0-0.94,0-1.21C49.98,57.43,49.98,57.26,49.96,56.27L49.96,56.27zM49.96,56.27"/>
		<path d="M25,32.28c7.31,0,13.23-7.23,13.23-16.14C38.23,7.23,36.28,0,25,0C13.71,0,11.76,7.23,11.76,16.14C11.76,25.05,17.69,32.28,25,32.28L25,32.28zM25,32.28"/>
	</symbol>

	<symbol id="cart" viewBox="0 0 40 34">
		<path d="M30.77,30.91c0,0.85,0.3,1.58,0.9,2.19C32.27,33.7,33,34,33.85,34c0.85,0,1.57-0.3,2.18-0.91c0.6-0.6,0.9-1.33,0.9-2.19c0-0.85-0.3-1.58-0.9-2.19c-0.6-0.6-1.33-0.91-2.18-0.91c-0.85,0-1.58,0.3-2.18,0.91C31.07,29.33,30.77,30.06,30.77,30.91L30.77,30.91zM30.77,30.91"/>
		<path d="M39.54,3.55c-0.3-0.31-0.67-0.46-1.08-0.46H9.59C9.57,2.98,9.54,2.77,9.48,2.47c-0.05-0.3-0.1-0.54-0.13-0.71C9.32,1.59,9.26,1.37,9.17,1.12C9.08,0.87,8.98,0.68,8.86,0.53C8.74,0.39,8.58,0.26,8.38,0.16C8.18,0.05,7.95,0,7.69,0H1.54C1.12,0,0.76,0.15,0.46,0.46C0.15,0.76,0,1.13,0,1.55s0.15,0.78,0.46,1.09c0.31,0.31,0.67,0.46,1.08,0.46h4.9l4.25,19.87c-0.03,0.07-0.2,0.37-0.49,0.92c-0.3,0.55-0.53,1.03-0.71,1.44c-0.18,0.41-0.27,0.73-0.27,0.95c0,0.42,0.15,0.78,0.46,1.09c0.31,0.31,0.67,0.46,1.08,0.46h24.62c0.42,0,0.78-0.15,1.08-0.46c0.3-0.31,0.46-0.67,0.46-1.09c0-0.42-0.15-0.78-0.46-1.09c-0.31-0.31-0.67-0.46-1.08-0.46H13.27c0.38-0.77,0.58-1.29,0.58-1.54c0-0.16-0.02-0.34-0.06-0.53c-0.04-0.19-0.09-0.41-0.14-0.64c-0.06-0.23-0.09-0.41-0.11-0.52l25.1-2.95c0.4-0.05,0.73-0.22,0.99-0.52C39.87,17.73,40,17.39,40,17V4.64C40,4.22,39.85,3.86,39.54,3.55L39.54,3.55zM39.54,3.55"/>
		<path d="M9.23,30.91c0,0.85,0.3,1.58,0.9,2.19c0.6,0.6,1.33,0.91,2.18,0.91c0.85,0,1.57-0.3,2.18-0.91c0.6-0.6,0.9-1.33,0.9-2.19c0-0.85-0.3-1.58-0.9-2.19c-0.6-0.6-1.33-0.91-2.18-0.91c-0.85,0-1.57,0.3-2.18,0.91C9.53,29.33,9.23,30.06,9.23,30.91L9.23,30.91zM9.23,30.91"/>
	</symbol>

	<symbol id="facebook" viewBox="0 0 42 77">
		<path d="M40.01,0.01L30.04,0c-11.2,0-18.44,7.43-18.44,18.92v8.73H1.57C0.7,27.65,0,28.35,0,29.22v12.64c0,0.86,0.7,1.57,1.57,1.57h10.03v31.9c0,0.86,0.7,1.57,1.57,1.57h13.08c0.87,0,1.57-0.7,1.57-1.57v-31.9h11.72c0.87,0,1.57-0.7,1.57-1.57l0.01-12.64c0-0.41-0.17-0.81-0.46-1.11c-0.29-0.29-0.69-0.46-1.11-0.46H27.81v-7.4c0-3.55,0.85-5.36,5.48-5.36l6.72,0c0.87,0,1.57-0.7,1.57-1.57V1.59C41.57,0.72,40.88,0.02,40.01,0.01L40.01,0.01zM40.01,0.01"/>
	</symbol>

	<symbol id="instagram" viewBox="0 0 40 40">
		<path d="M28.96,0H11.04C4.95,0,0,4.95,0,11.04v17.92C0,35.05,4.95,40,11.04,40h17.92C35.05,40,40,35.05,40,28.96V11.04C40,4.95,35.05,0,28.96,0L28.96,0zM36.45,28.96c0,4.13-3.36,7.49-7.49,7.49H11.04c-4.13,0-7.49-3.36-7.49-7.49V11.04c0-4.13,3.36-7.49,7.49-7.49h17.92c4.13,0,7.49,3.36,7.49,7.49V28.96z M36.45,28.96"/>
		<path d="M20,9.69C14.32,9.69,9.69,14.32,9.69,20c0,5.68,4.62,10.31,10.31,10.31c5.68,0,10.31-4.62,10.31-10.31C30.31,14.32,25.68,9.69,20,9.69L20,9.69zM20,26.76c-3.73,0-6.76-3.03-6.76-6.76c0-3.73,3.03-6.76,6.76-6.76s6.76,3.03,6.76,6.76C26.76,23.73,23.73,26.76,20,26.76L20,26.76zM20,26.76"/>
		<path d="M30.74,6.68c-0.68,0-1.36,0.28-1.84,0.76c-0.49,0.48-0.76,1.16-0.76,1.84c0,0.68,0.28,1.36,0.76,1.84c0.48,0.48,1.15,0.76,1.84,0.76c0.69,0,1.36-0.28,1.84-0.76c0.49-0.49,0.76-1.16,0.76-1.84c0-0.69-0.28-1.36-0.76-1.84C32.1,6.96,31.43,6.68,30.74,6.68L30.74,6.68z M30.74,6.68"/>
	</symbol>

	<symbol id="youtube" viewBox="0 0 60 72">
		<path d="M50.75,52.66H46.8l0.02-2.29c0-1.02,0.84-1.85,1.86-1.85h0.25c1.02,0,1.86,0.84,1.86,1.85L50.75,52.66zM35.93,47.75c-1,0-1.82,0.68-1.82,1.5v11.16c0,0.82,0.82,1.5,1.82,1.5c1.01,0,1.83-0.67,1.83-1.5V49.25C37.76,48.42,36.94,47.75,35.93,47.75L35.93,47.75zM60,41.5v21.23c0,5.09-4.42,9.26-9.82,9.26H9.82C4.41,72,0,67.83,0,62.74V41.5c0-5.09,4.41-9.26,9.82-9.26h40.37C55.58,32.24,60,36.41,60,41.5L60,41.5zM12.51,65.04V42.68h5v-3.31L4.17,39.34v3.26l4.16,0.01v22.43H12.51zM27.51,46.01h-4.17v11.95c0,1.73,0.11,2.59,0,2.9c-0.34,0.92-1.86,1.91-2.46,0.1c-0.1-0.32-0.01-1.27-0.01-2.91l-0.01-12.03h-4.15l0.01,11.84c0,1.82-0.04,3.17,0.02,3.78c0.1,1.09,0.06,2.35,1.07,3.07c1.88,1.35,5.48-0.2,6.38-2.14l-0.01,2.47l3.35,0L27.51,46.01L27.51,46.01zM40.85,59.69l-0.01-9.95c0-3.78-2.84-6.05-6.69-2.99l0.02-7.39l-4.17,0.01l-0.02,25.51l3.43-0.05l0.31-1.59C38.11,67.26,40.86,64.5,40.85,59.69L40.85,59.69zM53.91,58.37l-3.13,0.02c0,0.12-0.01,0.26-0.01,0.42v1.75c0,0.93-0.77,1.69-1.71,1.69h-0.61c-0.94,0-1.71-0.76-1.71-1.69v-4.59h7.16v-2.7c0-1.97-0.05-3.94-0.21-5.07c-0.51-3.56-5.51-4.13-8.04-2.3c-0.79,0.57-1.4,1.33-1.75,2.36c-0.36,1.02-0.53,2.42-0.53,4.2v5.93C43.37,68.24,55.34,66.84,53.91,58.37L53.91,58.37zM37.87,26.19c0.21,0.52,0.55,0.95,1,1.26c0.44,0.32,1.02,0.47,1.71,0.47c0.6,0,1.13-0.16,1.6-0.5c0.46-0.34,0.85-0.83,1.17-1.5l-0.08,1.64h4.65V7.79h-3.66v15.39c0,0.84-0.69,1.51-1.53,1.51c-0.83,0-1.52-0.68-1.52-1.51V7.79h-3.82v13.34c0,1.7,0.03,2.83,0.08,3.41C37.52,25.11,37.65,25.66,37.87,26.19L37.87,26.19zM23.77,15.02c0-1.9,0.16-3.38,0.47-4.45C24.56,9.5,25.13,8.65,25.96,8c0.82-0.65,1.87-0.97,3.15-0.97c1.07,0,2,0.21,2.77,0.63c0.78,0.41,1.37,0.95,1.79,1.62c0.42,0.67,0.71,1.36,0.86,2.06c0.15,0.71,0.23,1.79,0.23,3.24v5c0,1.83-0.07,3.18-0.22,4.04c-0.14,0.86-0.44,1.66-0.92,2.4c-0.46,0.74-1.06,1.29-1.79,1.64c-0.73,0.36-1.57,0.53-2.52,0.53c-1.06,0-1.95-0.14-2.69-0.45c-0.74-0.3-1.31-0.76-1.71-1.37c-0.41-0.61-0.7-1.35-0.88-2.22c-0.18-0.87-0.26-2.17-0.26-3.9V15.02zM27.41,22.87c0,1.12,0.84,2.03,1.85,2.03c1.01,0,1.84-0.91,1.84-2.03V12.34c0-1.12-0.83-2.03-1.84-2.03c-1.02,0-1.85,0.92-1.85,2.03V22.87zM14.55,28.19h4.39l0-15.17l5.18-12.99h-4.8l-2.76,9.65L13.77,0H9.02l5.52,13.03L14.55,28.19zM14.55,28.19"/>
	</symbol>

	<symbol id="camera" viewBox="0 0 80 64">
		<path d="M40,24c-6.63,0-12,5.37-12,12c0,6.63,5.37,12,12,12c6.63,0,12-5.37,12-12C52,29.37,46.63,24,40,24L40,24zM72,12h-9.6c-1.32,0-2.74-1.02-3.16-2.28l-2.48-7.45C56.34,1.02,54.92,0,53.6,0H26.4c-1.32,0-2.74,1.02-3.16,2.28l-2.48,7.45C20.34,10.98,18.92,12,17.6,12H8c-4.4,0-8,3.6-8,8v36c0,4.4,3.6,8,8,8h64c4.4,0,8-3.6,8-8V20C80,15.6,76.4,12,72,12L72,12zM40,56c-11.05,0-20-8.95-20-20c0-11.04,8.95-20,20-20c11.04,0,20,8.96,20,20C60,47.05,51.04,56,40,56L40,56zM69.2,25.59c-1.54,0-2.8-1.25-2.8-2.8c0-1.54,1.26-2.8,2.8-2.8c1.55,0,2.8,1.25,2.8,2.8C72,24.34,70.75,25.59,69.2,25.59L69.2,25.59zM69.2,25.59"/>
	</symbol>

	<symbol id="cup" viewBox="0 0 116 96">
		<path d="M106.83,60.82c-1.14,3.25-2.92,5.36-5.47,6.45c-3.84,1.65-8.95,0.74-12.34-0.3c3.22-6.79,5.21-12.91,6.41-18.22c3.78,0.63,9.08,2.15,11.18,5.28C107.03,54.67,108.31,56.58,106.83,60.82M113.63,49.24c-2.54-3.79-6.94-6.52-13.08-8.13c-1.34-0.35-2.61-0.61-3.74-0.79c0.86-8.64-0.46-13.62-0.46-13.62h-0.01c0.01-0.17,0.01-0.34,0.01-0.5C96.36,11.73,74.93,0,48.49,0C23.42,0,2.85,10.54,0.78,23.97l-0.17,0c0,0-3.65,24.61,6.92,45.84C19.06,92.98,33.03,96,50.98,96c15.69,0,22.84-0.86,34.09-21.33c2.53,0.89,6.74,2.07,11.31,2.07c2.72,0,5.56-0.42,8.26-1.56c4.81-2.05,8.24-5.92,10.19-11.5C117.23,56.79,115.5,52.03,113.63,49.24"/>
	</symbol>

	<symbol id="arrow-up-down" viewBox="0 0 18 28">
		<path d="M16.45,18.5l-6.54,6.44v-0.61c0-0.01,0-0.01,0-0.01V3.06l6.53,6.44c0.36,0.34,0.95,0.34,1.29,0c0.36-0.36,0.36-0.93,0-1.27L9.64,0.27c-0.35-0.36-0.93-0.36-1.27,0L0.27,8.23c-0.36,0.34-0.36,0.91,0,1.27c0.35,0.34,0.93,0.34,1.28,0l6.54-6.44v0.61c0,0.01,0,0.01,0,0.01l0,21.25L1.56,18.5c-0.36-0.34-0.95-0.34-1.29,0c-0.36,0.36-0.36,0.93,0,1.27l8.09,7.97c0.35,0.36,0.93,0.36,1.27,0l8.09-7.97c0.36-0.34,0.36-0.91,0-1.27C17.38,18.15,16.8,18.15,16.45,18.5z"/>
	</symbol>

	<symbol id="upload" viewBox="0 0 40 30">
		<path d="M32.22,10.3c-0.53-5.77-5.28-10.3-11.05-10.3c-4.44,0-8.27,2.67-10.04,6.53C10.54,6.31,9.9,6.2,9.24,6.2c-3.06,0-5.54,2.54-5.54,5.69c0,0.68,0.12,1.34,0.34,1.95C1.63,15.28,0,17.98,0,21.06c0,4.46,3.42,8.58,7.7,8.83h9.23v-8.91h-3.97c-0.81,0-1.22-1-0.66-1.59l7.03-7.43c0.36-0.38,0.95-0.38,1.31,0l7.03,7.43c0.56,0.59,0.16,1.59-0.66,1.59h-3.97v8.93h8.21c4.88-0.35,8.74-4.76,8.74-9.85C40.01,15.29,36.64,11.08,32.22,10.3L32.22,10.3z M32.22,10.3"/>
	</symbol>

	<symbol id="filter" viewBox="0 0 40 40">
		<path d="M15.18,18.89c0.42,0.46,0.66,1.05,0.66,1.67v18.18c0,1.09,1.33,1.65,2.12,0.88l5.12-5.81c0.68-0.81,1.06-1.22,1.06-2.02V20.57c0-0.62,0.24-1.21,0.66-1.67L39.49,3.11C40.59,1.92,39.74,0,38.11,0H1.87C0.25,0-0.61,1.92,0.5,3.11L15.18,18.89z M15.18,18.89"/>
	</symbol>

	<symbol id="bag" viewBox="0 0 48 48">
		<path d="M46.76,45.72l-7.62-4.55V4.8c0-0.44-0.35-0.8-0.8-0.8c-0.44,0-0.8,0.36-0.8,0.8v36.36l-7.62,4.55c-0.37,0.22-0.5,0.71-0.28,1.1c0.21,0.38,0.69,0.52,1.06,0.29l7.64-4.57l7.64,4.57c0.37,0.22,0.85,0.09,1.06-0.29C47.26,46.43,47.13,45.94,46.76,45.72L46.76,45.72z M46.76,45.72"/>
		<path d="M29.55,22.4H9.56c-0.44,0-0.8,0.36-0.8,0.8l-1.6,8c0,0.44,0.36,0.8,0.8,0.8h19.99c0.44,0,0.8-0.36,0.8-0.8l1.6-8C30.35,22.76,29.99,22.4,29.55,22.4L29.55,22.4zM27.16,30.4H9.14l1.22-6.4h18.01L27.16,30.4z M22.36,32.8c-0.21,0-0.4,0.09-0.54,0.22l-0.01-0.01c-1.19,0.87-2.65,1.39-4.24,1.39c-1.58,0-3.05-0.52-4.24-1.39l-0.01,0.01c-0.14-0.14-0.33-0.22-0.55-0.22c-0.44,0-0.8,0.36-0.8,0.8c0,0.21,0.09,0.4,0.22,0.54l0,0.01c0,0,0.01,0,0.01,0.01c0.08,0.08,0.17,0.14,0.28,0.18C13.9,35.37,15.65,36,17.56,36c1.91,0,3.65-0.63,5.09-1.66c0.11-0.04,0.2-0.1,0.28-0.18c0,0,0.01-0.01,0.02-0.01l-0.01,0c0.13-0.15,0.22-0.33,0.22-0.54C23.16,33.16,22.8,32.8,22.36,32.8L22.36,32.8z M14.36,21.6c0.23,0,0.43-0.1,0.58-0.25l0.02,0.02c1.18-0.86,2.63-1.36,4.2-1.36c1.57,0,3.02,0.51,4.21,1.36l0.02-0.02c0.14,0.15,0.35,0.25,0.58,0.25c0.44,0,0.8-0.36,0.8-0.8c0-0.34-0.21-0.63-0.5-0.74c-1.44-1.03-3.19-1.66-5.1-1.66c-1.91,0-3.65,0.63-5.1,1.66c-0.29,0.12-0.5,0.4-0.5,0.74C13.56,21.24,13.92,21.6,14.36,21.6L14.36,21.6zM14.36,21.6"/>
		<path d="M47.99,47.2L39.21,0.73c-0.03-0.18-0.11-0.34-0.23-0.46C38.83,0.11,38.62,0,38.39,0H3.97c-0.44,0-0.8,0.36-0.8,0.8V8c0,0.44,0.36,0.8,0.8,0.8h28.82c0.44,0,0.8-0.36,0.8-0.8s-0.36-0.8-0.8-0.8H4.77V1.6h32.7l-8.68,44.8H1.76l6.7-35.2H8.44c0-0.44-0.36-0.8-0.8-0.8c-0.44,0-0.8,0.36-0.8,0.8H6.83L0.04,46.88L0,47.39C0.09,47.73,0.39,48,0.77,48h46.43c0.38,0,0.69-0.27,0.77-0.63C48,47.37,48.02,47.33,47.99,47.2L47.99,47.2zM30.42,46.4l8-41.27L46.2,46.4H30.42z M30.42,46.4"/>
	</symbol>

	<symbol id="font-size-decrease" viewBox="0 0 50 50">
		<path d="M10.7,41.02L8.21,50H0l10.7-35h10.39l10.85,35h-8.52l-2.7-8.98H10.7zM19.58,35.1l-2.18-7.43c-0.62-2.08-1.25-4.67-1.77-6.75h-0.1c-0.52,2.08-1.04,4.73-1.61,6.75l-2.08,7.43H19.58z"/>
		<polygon points="28,0 39,11 50,0"/>
	</symbol>

	<symbol id="font-size-increase" viewBox="0 0 50 50">
		<path d="M12.39,39.59L9.51,50H0L12.39,9.45h12.03L37,50h-9.87l-3.13-10.41H12.39zM22.68,32.73l-2.53-8.6c-0.72-2.41-1.44-5.41-2.05-7.82h-0.12c-0.6,2.41-1.2,5.47-1.87,7.82l-2.41,8.6H22.68z"/>
		<polygon points="50,11 39,0 28,11 "/>
	</symbol>

	<symbol id="rotate" viewBox="0 0 50 50">
		<path d="M49.4,2.7c-0.4-0.4-0.9-0.6-1.5-0.6c-0.6,0-1.1,0.2-1.5,0.6l-4.2,4.2c-2.3-2.2-5-3.9-8-5.1C31.3,0.6,28.2,0,25,0C19,0,13.8,1.8,9.4,5.4C4.9,9,2,13.7,0.6,19.6v0.2c0,0.3,0.1,0.5,0.3,0.7c0.2,0.2,0.5,0.3,0.7,0.3h6.5c0.5,0,0.8-0.2,1-0.7c0.9-2.2,1.5-3.4,1.7-3.8c1.5-2.5,3.5-4.4,6.1-5.8C19.4,9,22.1,8.3,25,8.3c4.4,0,8.1,1.5,11.4,4.5l-4.5,4.5c-0.4,0.4-0.6,0.9-0.6,1.5c0,0.6,0.2,1.1,0.6,1.5c0.4,0.4,0.9,0.6,1.5,0.6h14.6c0.6,0,1.1-0.2,1.5-0.6c0.4-0.4,0.6-0.9,0.6-1.5V4.2C50,3.6,49.8,3.1,49.4,2.7L49.4,2.7zM49.4,2.7"/>
		<path d="M48.1,29.2h-6.3c-0.5,0-0.8,0.2-1,0.7c-0.9,2.2-1.5,3.4-1.7,3.8c-1.5,2.5-3.5,4.4-6.1,5.8c-2.5,1.4-5.2,2.1-8.1,2.1c-2.1,0-4.1-0.4-6.1-1.2c-2-0.8-3.7-1.9-5.2-3.3l4.5-4.5c0.4-0.4,0.6-0.9,0.6-1.5s-0.2-1.1-0.6-1.5c-0.4-0.4-0.9-0.6-1.5-0.6H2.1c-0.6,0-1.1,0.2-1.5,0.6C0.2,30.2,0,30.7,0,31.2v14.6c0,0.6,0.2,1.1,0.6,1.5c0.4,0.4,0.9,0.6,1.5,0.6c0.6,0,1.1-0.2,1.5-0.6l4.2-4.2c2.3,2.2,5,3.9,7.9,5.1c3,1.2,6,1.8,9.2,1.8c5.9,0,11.1-1.8,15.6-5.4c4.4-3.6,7.3-8.3,8.7-14.1c0,0,0-0.1,0-0.2c0-0.3-0.1-0.5-0.3-0.7C48.7,29.3,48.4,29.2,48.1,29.2L48.1,29.2z M48.1,29.2"/>
	</symbol>

</svg>